<?xml version="1.0" encoding="UTF-8" standalone="no"?>
<svg width="140px" height="140px" viewBox="0 0 140 140" version="1.1" xmlns="http://www.w3.org/2000/svg" xmlns:xlink="http://www.w3.org/1999/xlink" xmlns:sketch="http://www.bohemiancoding.com/sketch/ns">
    <!-- Generator: Sketch 3.3 (11970) - http://www.bohemiancoding.com/sketch -->
    <title>Oval 5 + Oval 5 Copy + Oval 5 Copy 5</title>
    <desc>Created with Sketch.</desc>
    <defs></defs>
    <g id="UniVerse" stroke="none" stroke-width="1" fill="none" fill-rule="evenodd" sketch:type="MSPage">
        <g id="Icons" sketch:type="MSArtboardGroup" transform="translate(-852.000000, -71.000000)">
            <g id="Oval-5-+-Oval-5-Copy-+-Oval-5-Copy-5" sketch:type="MSLayerGroup" transform="translate(852.000000, 71.000000)">
                <path d="M63.1673028,77.3017076 C53.1845479,87.9232754 35.7123696,106.318085 35.0041913,105.711272 C32.6308037,103.6776 30.7842202,101.175559 29.0049025,98.6327429 C27.0388369,95.8230458 25.3542634,92.8018898 23.9921036,89.6101967 C21.4222922,83.5888406 20,76.9605174 20,70 C20,42.3857625 42.3857625,20 70,20 C97.6142375,20 120,42.3857625 120,70 C120,71.2580524 94.5860744,70.7222818 79.9952556,70.3110111 C79.9984109,70.2077272 80,70.1040492 80,70 C80,64.4771525 75.5228475,60 70,60 C64.4771525,60 60,64.4771525 60,70 C60,72.8807223 61.2180877,75.4769449 63.1673028,77.3017076 L63.1673028,77.3017076 Z M70,140 C108.659932,140 140,108.659932 140,70 C140,31.3400675 108.659932,0 70,0 C31.3400675,0 0,31.3400675 0,70 C0,108.659932 31.3400675,140 70,140 Z M70,75 C72.7614237,75 75,72.7614237 75,70 C75,67.2385763 72.7614237,65 70,65 C67.2385763,65 65,67.2385763 65,70 C65,72.7614237 67.2385763,75 70,75 Z" id="Oval-5" fill="#CEBD0F" sketch:type="MSShapeGroup"></path>
                <circle id="Oval-5-Copy" stroke="#FFFFFF" stroke-width="4" sketch:type="MSShapeGroup" cx="70" cy="70" r="60"></circle>
                <circle id="Oval-5-Copy-5" stroke="#FFFFFF" stroke-width="2" sketch:type="MSShapeGroup" cx="70" cy="70" r="50"></circle>
            </g>
        </g>
    </g>
</svg>